<svg xmlns="http://www.w3.org/2000/svg" viewBox="0 0 720.0 252" style="font-family: -apple-system, 'Noto Sans KR', sans-serif;">
<rect x="12" y="12" width="44" height="44" rx="5" fill="#F9FAFB" stroke="#E5E7EB" stroke-width="1.5"/>
<text x="51" y="24" text-anchor="end" font-size="9" fill="#B0B0B0">`</text>
<rect x="60" y="12" width="44" height="44" rx="5" fill="#F9FAFB" stroke="#E5E7EB" stroke-width="1.5"/>
<text x="99" y="24" text-anchor="end" font-size="9" fill="#B0B0B0">1</text>
<rect x="108" y="12" width="44" height="44" rx="5" fill="#F9FAFB" stroke="#E5E7EB" stroke-width="1.5"/>
<text x="147" y="24" text-anchor="end" font-size="9" fill="#B0B0B0">2</text>
<rect x="156" y="12" width="44" height="44" rx="5" fill="#F9FAFB" stroke="#E5E7EB" stroke-width="1.5"/>
<text x="195" y="24" text-anchor="end" font-size="9" fill="#B0B0B0">3</text>
<rect x="204" y="12" width="44" height="44" rx="5" fill="#F9FAFB" stroke="#E5E7EB" stroke-width="1.5"/>
<text x="243" y="24" text-anchor="end" font-size="9" fill="#B0B0B0">4</text>
<rect x="252" y="12" width="44" height="44" rx="5" fill="#F9FAFB" stroke="#E5E7EB" stroke-width="1.5"/>
<text x="291" y="24" text-anchor="end" font-size="9" fill="#B0B0B0">5</text>
<rect x="300" y="12" width="44" height="44" rx="5" fill="#F9FAFB" stroke="#E5E7EB" stroke-width="1.5"/>
<text x="339" y="24" text-anchor="end" font-size="9" fill="#B0B0B0">6</text>
<rect x="348" y="12" width="44" height="44" rx="5" fill="#F9FAFB" stroke="#E5E7EB" stroke-width="1.5"/>
<text x="387" y="24" text-anchor="end" font-size="9" fill="#B0B0B0">7</text>
<rect x="396" y="12" width="44" height="44" rx="5" fill="#F9FAFB" stroke="#E5E7EB" stroke-width="1.5"/>
<text x="435" y="24" text-anchor="end" font-size="9" fill="#B0B0B0">8</text>
<rect x="444" y="12" width="44" height="44" rx="5" fill="#F9FAFB" stroke="#E5E7EB" stroke-width="1.5"/>
<text x="483" y="24" text-anchor="end" font-size="9" fill="#B0B0B0">9</text>
<rect x="492" y="12" width="44" height="44" rx="5" fill="#F9FAFB" stroke="#E5E7EB" stroke-width="1.5"/>
<text x="531" y="24" text-anchor="end" font-size="9" fill="#B0B0B0">0</text>
<rect x="540" y="12" width="44" height="44" rx="5" fill="#F9FAFB" stroke="#E5E7EB" stroke-width="1.5"/>
<text x="579" y="24" text-anchor="end" font-size="9" fill="#B0B0B0">-</text>
<rect x="588" y="12" width="44" height="44" rx="5" fill="#F9FAFB" stroke="#E5E7EB" stroke-width="1.5"/>
<text x="627" y="24" text-anchor="end" font-size="9" fill="#B0B0B0">=</text>
<rect x="84.0" y="60" width="44" height="44" rx="5" fill="#DBEAFE" stroke="#93C5FD" stroke-width="1.5"/>
<text x="123.0" y="72" text-anchor="end" font-size="9" fill="#B0B0B0">Q</text>
<text x="90.0" y="74" font-size="11" fill="#374151">ㅃ</text>
<text x="106.0" y="96" text-anchor="middle" font-size="16" font-weight="500" fill="#111827">ㅂ</text>
<rect x="132.0" y="60" width="44" height="44" rx="5" fill="#DBEAFE" stroke="#93C5FD" stroke-width="1.5"/>
<text x="171.0" y="72" text-anchor="end" font-size="9" fill="#B0B0B0">W</text>
<text x="138.0" y="74" font-size="11" fill="#374151">ㅉ</text>
<text x="154.0" y="96" text-anchor="middle" font-size="16" font-weight="500" fill="#111827">ㅈ</text>
<rect x="180.0" y="60" width="44" height="44" rx="5" fill="#DBEAFE" stroke="#93C5FD" stroke-width="1.5"/>
<text x="219.0" y="72" text-anchor="end" font-size="9" fill="#B0B0B0">E</text>
<text x="186.0" y="74" font-size="11" fill="#374151">ㄸ</text>
<text x="202.0" y="96" text-anchor="middle" font-size="16" font-weight="500" fill="#111827">ㄷ</text>
<rect x="228.0" y="60" width="44" height="44" rx="5" fill="#DBEAFE" stroke="#93C5FD" stroke-width="1.5"/>
<text x="267.0" y="72" text-anchor="end" font-size="9" fill="#B0B0B0">R</text>
<text x="234.0" y="74" font-size="11" fill="#374151">ㄲ</text>
<text x="250.0" y="96" text-anchor="middle" font-size="16" font-weight="500" fill="#111827">ㄱ</text>
<rect x="276.0" y="60" width="44" height="44" rx="5" fill="#DBEAFE" stroke="#93C5FD" stroke-width="1.5"/>
<text x="315.0" y="72" text-anchor="end" font-size="9" fill="#B0B0B0">T</text>
<text x="282.0" y="74" font-size="11" fill="#374151">ㅆ</text>
<text x="298.0" y="96" text-anchor="middle" font-size="16" font-weight="500" fill="#111827">ㅅ</text>
<rect x="324.0" y="60" width="44" height="44" rx="5" fill="#FEF3C7" stroke="#FCD34D" stroke-width="1.5"/>
<text x="363.0" y="72" text-anchor="end" font-size="9" fill="#B0B0B0">Y</text>
<text x="346.0" y="96" text-anchor="middle" font-size="16" font-weight="500" fill="#111827">ㅛ</text>
<rect x="372.0" y="60" width="44" height="44" rx="5" fill="#FEF3C7" stroke="#FCD34D" stroke-width="1.5"/>
<text x="411.0" y="72" text-anchor="end" font-size="9" fill="#B0B0B0">U</text>
<text x="394.0" y="96" text-anchor="middle" font-size="16" font-weight="500" fill="#111827">ㅕ</text>
<rect x="420.0" y="60" width="44" height="44" rx="5" fill="#FEF3C7" stroke="#FCD34D" stroke-width="1.5"/>
<text x="459.0" y="72" text-anchor="end" font-size="9" fill="#B0B0B0">I</text>
<text x="442.0" y="96" text-anchor="middle" font-size="16" font-weight="500" fill="#111827">ㅑ</text>
<rect x="468.0" y="60" width="44" height="44" rx="5" fill="#FEF3C7" stroke="#FCD34D" stroke-width="1.5"/>
<text x="507.0" y="72" text-anchor="end" font-size="9" fill="#B0B0B0">O</text>
<text x="474.0" y="74" font-size="11" fill="#374151">ㅒ</text>
<text x="490.0" y="96" text-anchor="middle" font-size="16" font-weight="500" fill="#111827">ㅐ</text>
<rect x="516.0" y="60" width="44" height="44" rx="5" fill="#FEF3C7" stroke="#FCD34D" stroke-width="1.5"/>
<text x="555.0" y="72" text-anchor="end" font-size="9" fill="#B0B0B0">P</text>
<text x="522.0" y="74" font-size="11" fill="#374151">ㅖ</text>
<text x="538.0" y="96" text-anchor="middle" font-size="16" font-weight="500" fill="#111827">ㅔ</text>
<rect x="564.0" y="60" width="44" height="44" rx="5" fill="#F9FAFB" stroke="#E5E7EB" stroke-width="1.5"/>
<text x="603.0" y="72" text-anchor="end" font-size="9" fill="#B0B0B0">[</text>
<rect x="612.0" y="60" width="44" height="44" rx="5" fill="#F9FAFB" stroke="#E5E7EB" stroke-width="1.5"/>
<text x="651.0" y="72" text-anchor="end" font-size="9" fill="#B0B0B0">]</text>
<rect x="660.0" y="60" width="44" height="44" rx="5" fill="#F9FAFB" stroke="#E5E7EB" stroke-width="1.5"/>
<text x="699.0" y="72" text-anchor="end" font-size="9" fill="#B0B0B0">\</text>
<rect x="96.0" y="108" width="44" height="44" rx="5" fill="#DBEAFE" stroke="#93C5FD" stroke-width="1.5"/>
<text x="135.0" y="120" text-anchor="end" font-size="9" fill="#B0B0B0">A</text>
<text x="118.0" y="144" text-anchor="middle" font-size="16" font-weight="500" fill="#111827">ㅁ</text>
<rect x="144.0" y="108" width="44" height="44" rx="5" fill="#DBEAFE" stroke="#93C5FD" stroke-width="1.5"/>
<text x="183.0" y="120" text-anchor="end" font-size="9" fill="#B0B0B0">S</text>
<text x="166.0" y="144" text-anchor="middle" font-size="16" font-weight="500" fill="#111827">ㄴ</text>
<rect x="192.0" y="108" width="44" height="44" rx="5" fill="#DBEAFE" stroke="#93C5FD" stroke-width="1.5"/>
<text x="231.0" y="120" text-anchor="end" font-size="9" fill="#B0B0B0">D</text>
<text x="214.0" y="144" text-anchor="middle" font-size="16" font-weight="500" fill="#111827">ㅇ</text>
<rect x="240.0" y="108" width="44" height="44" rx="5" fill="#DBEAFE" stroke="#93C5FD" stroke-width="1.5"/>
<text x="279.0" y="120" text-anchor="end" font-size="9" fill="#B0B0B0">F</text>
<text x="262.0" y="144" text-anchor="middle" font-size="16" font-weight="500" fill="#111827">ㄹ</text>
<rect x="288.0" y="108" width="44" height="44" rx="5" fill="#DBEAFE" stroke="#93C5FD" stroke-width="1.5"/>
<text x="327.0" y="120" text-anchor="end" font-size="9" fill="#B0B0B0">G</text>
<text x="310.0" y="144" text-anchor="middle" font-size="16" font-weight="500" fill="#111827">ㅎ</text>
<rect x="336.0" y="108" width="44" height="44" rx="5" fill="#FEF3C7" stroke="#FCD34D" stroke-width="1.5"/>
<text x="375.0" y="120" text-anchor="end" font-size="9" fill="#B0B0B0">H</text>
<text x="358.0" y="144" text-anchor="middle" font-size="16" font-weight="500" fill="#111827">ㅗ</text>
<rect x="384.0" y="108" width="44" height="44" rx="5" fill="#FEF3C7" stroke="#FCD34D" stroke-width="1.5"/>
<text x="423.0" y="120" text-anchor="end" font-size="9" fill="#B0B0B0">J</text>
<text x="406.0" y="144" text-anchor="middle" font-size="16" font-weight="500" fill="#111827">ㅓ</text>
<rect x="432.0" y="108" width="44" height="44" rx="5" fill="#FEF3C7" stroke="#FCD34D" stroke-width="1.5"/>
<text x="471.0" y="120" text-anchor="end" font-size="9" fill="#B0B0B0">K</text>
<text x="454.0" y="144" text-anchor="middle" font-size="16" font-weight="500" fill="#111827">ㅏ</text>
<rect x="480.0" y="108" width="44" height="44" rx="5" fill="#FEF3C7" stroke="#FCD34D" stroke-width="1.5"/>
<text x="519.0" y="120" text-anchor="end" font-size="9" fill="#B0B0B0">L</text>
<text x="502.0" y="144" text-anchor="middle" font-size="16" font-weight="500" fill="#111827">ㅣ</text>
<rect x="528.0" y="108" width="44" height="44" rx="5" fill="#F9FAFB" stroke="#E5E7EB" stroke-width="1.5"/>
<text x="567.0" y="120" text-anchor="end" font-size="9" fill="#B0B0B0">;</text>
<rect x="576.0" y="108" width="44" height="44" rx="5" fill="#F9FAFB" stroke="#E5E7EB" stroke-width="1.5"/>
<text x="615.0" y="120" text-anchor="end" font-size="9" fill="#B0B0B0">&#39;</text>
<rect x="120.0" y="156" width="44" height="44" rx="5" fill="#DBEAFE" stroke="#93C5FD" stroke-width="1.5"/>
<text x="159.0" y="168" text-anchor="end" font-size="9" fill="#B0B0B0">Z</text>
<text x="142.0" y="192" text-anchor="middle" font-size="16" font-weight="500" fill="#111827">ㅋ</text>
<rect x="168.0" y="156" width="44" height="44" rx="5" fill="#DBEAFE" stroke="#93C5FD" stroke-width="1.5"/>
<text x="207.0" y="168" text-anchor="end" font-size="9" fill="#B0B0B0">X</text>
<text x="190.0" y="192" text-anchor="middle" font-size="16" font-weight="500" fill="#111827">ㅌ</text>
<rect x="216.0" y="156" width="44" height="44" rx="5" fill="#DBEAFE" stroke="#93C5FD" stroke-width="1.5"/>
<text x="255.0" y="168" text-anchor="end" font-size="9" fill="#B0B0B0">C</text>
<text x="238.0" y="192" text-anchor="middle" font-size="16" font-weight="500" fill="#111827">ㅊ</text>
<rect x="264.0" y="156" width="44" height="44" rx="5" fill="#DBEAFE" stroke="#93C5FD" stroke-width="1.5"/>
<text x="303.0" y="168" text-anchor="end" font-size="9" fill="#B0B0B0">V</text>
<text x="286.0" y="192" text-anchor="middle" font-size="16" font-weight="500" fill="#111827">ㅍ</text>
<rect x="312.0" y="156" width="44" height="44" rx="5" fill="#FEF3C7" stroke="#FCD34D" stroke-width="1.5"/>
<text x="351.0" y="168" text-anchor="end" font-size="9" fill="#B0B0B0">B</text>
<text x="334.0" y="192" text-anchor="middle" font-size="16" font-weight="500" fill="#111827">ㅠ</text>
<rect x="360.0" y="156" width="44" height="44" rx="5" fill="#FEF3C7" stroke="#FCD34D" stroke-width="1.5"/>
<text x="399.0" y="168" text-anchor="end" font-size="9" fill="#B0B0B0">N</text>
<text x="382.0" y="192" text-anchor="middle" font-size="16" font-weight="500" fill="#111827">ㅜ</text>
<rect x="408.0" y="156" width="44" height="44" rx="5" fill="#FEF3C7" stroke="#FCD34D" stroke-width="1.5"/>
<text x="447.0" y="168" text-anchor="end" font-size="9" fill="#B0B0B0">M</text>
<text x="430.0" y="192" text-anchor="middle" font-size="16" font-weight="500" fill="#111827">ㅡ</text>
<rect x="456.0" y="156" width="44" height="44" rx="5" fill="#F9FAFB" stroke="#E5E7EB" stroke-width="1.5"/>
<text x="495.0" y="168" text-anchor="end" font-size="9" fill="#B0B0B0">,</text>
<rect x="504.0" y="156" width="44" height="44" rx="5" fill="#F9FAFB" stroke="#E5E7EB" stroke-width="1.5"/>
<text x="543.0" y="168" text-anchor="end" font-size="9" fill="#B0B0B0">.</text>
<rect x="552.0" y="156" width="44" height="44" rx="5" fill="#F9FAFB" stroke="#E5E7EB" stroke-width="1.5"/>
<text x="591.0" y="168" text-anchor="end" font-size="9" fill="#B0B0B0">/</text>
<rect x="260.0" y="216" width="16" height="16" rx="3" fill="#DBEAFE" stroke="#93C5FD" stroke-width="1"/>
<text x="282.0" y="229" font-size="13" fill="#4B5563">자음</text>
<rect x="360.0" y="216" width="16" height="16" rx="3" fill="#FEF3C7" stroke="#FCD34D" stroke-width="1"/>
<text x="382.0" y="229" font-size="13" fill="#4B5563">모음</text>
</svg>